<svg version="1.1" xmlns="http://www.w3.org/2000/svg" viewBox="0 0 250 250"><desc>Created with Snap</desc><defs></defs><g transform="matrix(0.0675,0,0,0.0675,17.4869,81.9048)"><g transform="matrix(22.1979,0,0,22.1979,471.834,45.8331)"><g><path d="M74.265,60.41c0.964,2.929,1.401,5.966,1.261,9.015c2.584-0.989,5.013-2.49,7.095-4.572c0.244-0.244,0.41-0.527,0.637-0.78   c0.018-0.341,0.105-0.659,0.105-1.004c0-2.924-0.646-5.691-1.764-8.203C79.522,57.139,77.045,59.022,74.265,60.41z" fill="#143d59" style=""></path><path d="M54.863,81.605c2.509,1.112,5.276,1.759,8.2,1.759c0.349,0,0.664-0.085,1.004-0.103c0.253-0.227,0.541-0.393,0.781-0.637   c2.08-2.085,3.585-4.516,4.572-7.104c-3.049,0.14-6.086-0.292-9.01-1.257C59.022,77.049,57.137,79.528,54.863,81.605z" fill="#143d59" style=""></path><path d="M40.588,74.265c-2.925,0.965-5.965,1.396-9.013,1.257c0.988,2.588,2.49,5.023,4.573,7.104   c0.242,0.244,0.528,0.41,0.779,0.637c0.339,0.018,0.661,0.103,1.003,0.103c2.926,0,5.691-0.646,8.202-1.759   C43.861,79.528,41.976,77.049,40.588,74.265z" fill="#143d59" style=""></path><path d="M26.731,60.41c-2.781-1.388-5.26-3.271-7.337-5.545c-1.112,2.512-1.758,5.279-1.758,8.203c0,0.345,0.085,0.663,0.1,1.004   c0.229,0.253,0.395,0.536,0.639,0.78c2.082,2.082,4.515,3.583,7.098,4.572C25.333,66.376,25.767,63.339,26.731,60.41z" fill="#143d59" style=""></path><path d="M26.731,40.592c-0.964-2.929-1.398-5.966-1.259-9.016c-2.583,0.989-5.014,2.491-7.098,4.572   c-0.244,0.245-0.41,0.528-0.639,0.781c-0.015,0.341-0.1,0.659-0.1,1.004c0,2.924,0.646,5.69,1.76,8.205   C21.471,43.863,23.95,41.979,26.731,40.592z" fill="#143d59" style=""></path><path d="M46.132,19.397c-2.511-1.114-5.275-1.76-8.202-1.76c-0.342,0-0.664,0.084-1.003,0.102   c-0.251,0.228-0.537,0.393-0.779,0.638c-2.083,2.08-3.585,4.515-4.573,7.103c3.048-0.14,6.088,0.293,9.013,1.257   C41.976,23.952,43.861,21.475,46.132,19.397z" fill="#143d59" style=""></path><path d="M60.41,26.736c2.924-0.964,5.961-1.396,9.01-1.257c-0.99-2.588-2.492-5.017-4.572-7.103   c-0.24-0.245-0.528-0.41-0.781-0.638c-0.34-0.018-0.659-0.102-1.004-0.102c-2.924,0-5.691,0.646-8.2,1.76   C57.137,21.475,59.022,23.952,60.41,26.736z" fill="#143d59" style=""></path><path d="M82.621,36.148c-2.082-2.081-4.511-3.583-7.095-4.572c0.14,3.05-0.297,6.087-1.261,9.016   c2.78,1.388,5.257,3.271,7.334,5.547c1.117-2.515,1.764-5.281,1.764-8.205c0-0.345-0.088-0.663-0.105-1.004   C83.031,36.677,82.865,36.394,82.621,36.148z" fill="#143d59" style=""></path><path d="M58.228,63.068c0-0.166-0.048-0.319-0.052-0.484c-1.061-0.21-2.09-0.498-3.099-0.834c-0.462,0.921-0.89,1.851-1.469,2.719   c0.113,0.122,0.19,0.267,0.309,0.384c1.143,1.14,2.404,2.069,3.718,2.881C57.993,66.228,58.228,64.683,58.228,63.068z" fill="#143d59" style=""></path><path d="M43.362,67.733c1.313-0.812,2.574-1.741,3.715-2.881c0.12-0.117,0.199-0.262,0.312-0.384   c-0.581-0.868-1.008-1.798-1.471-2.719c-1.008,0.336-2.038,0.624-3.1,0.834c-0.002,0.165-0.048,0.318-0.048,0.484   C42.771,64.683,43.006,66.228,43.362,67.733z" fill="#143d59" style=""></path><path d="M36.148,53.922c-1.139,1.14-2.068,2.4-2.88,3.717c1.503,0.355,3.051,0.59,4.663,0.59c0.166,0,0.318-0.044,0.484-0.048   c0.209-1.06,0.495-2.094,0.833-3.102c-0.918-0.463-1.848-0.886-2.716-1.471C36.411,53.726,36.269,53.805,36.148,53.922z" fill="#143d59" style=""></path><path d="M38.415,42.821c-0.166-0.006-0.319-0.05-0.484-0.05c-1.612,0-3.159,0.236-4.663,0.591c0.812,1.318,1.739,2.578,2.88,3.717   c0.12,0.118,0.262,0.196,0.384,0.314c0.868-0.583,1.797-1.008,2.716-1.471C38.91,44.916,38.625,43.881,38.415,42.821z" fill="#143d59" style=""></path><path d="M42.771,37.934c0,0.166,0.046,0.318,0.048,0.484c1.062,0.21,2.092,0.498,3.1,0.834c0.462-0.921,0.89-1.851,1.471-2.719   c-0.113-0.123-0.192-0.267-0.312-0.385c-1.141-1.139-2.402-2.066-3.715-2.879C43.006,34.774,42.771,36.319,42.771,37.934z" fill="#143d59" style=""></path><path d="M57.635,33.27c-1.314,0.812-2.575,1.74-3.718,2.879c-0.118,0.118-0.195,0.262-0.309,0.385   c0.579,0.868,1.007,1.798,1.469,2.719c1.008-0.336,2.038-0.624,3.099-0.834c0.004-0.166,0.052-0.318,0.052-0.484   C58.228,36.319,57.993,34.774,57.635,33.27z" fill="#143d59" style=""></path><path d="M63.063,42.771c-0.166,0-0.314,0.044-0.48,0.05c-0.209,1.06-0.498,2.095-0.838,3.102c0.921,0.463,1.851,0.888,2.719,1.471   c0.122-0.118,0.266-0.196,0.384-0.314c1.139-1.139,2.067-2.398,2.883-3.717C66.226,43.008,64.678,42.771,63.063,42.771z" fill="#143d59" style=""></path><path d="M48.074,49.493c-0.035,0.676-0.035,1.339,0,2.012c0.452,0.502,0.921,0.969,1.42,1.423c0.671,0.034,1.335,0.034,2.007,0   c0.5-0.454,0.972-0.926,1.423-1.423c0.035-0.673,0.033-1.336,0-2.008c-0.451-0.502-0.921-0.969-1.42-1.423   c-0.673-0.035-1.34-0.035-2.012,0C48.995,48.528,48.524,48.995,48.074,49.493z" fill="#143d59" style=""></path><path d="M64.464,53.608c-0.868,0.585-1.798,1.008-2.719,1.471c0.34,1.008,0.628,2.042,0.838,3.102   c0.166,0.004,0.314,0.048,0.48,0.048c1.615,0,3.163-0.234,4.668-0.59c-0.816-1.316-1.745-2.577-2.883-3.717   C64.73,53.805,64.586,53.726,64.464,53.608z" fill="#143d59" style=""></path><path d="M72.271,55.926c2.583-1.327,4.827-3.173,6.615-5.425c-1.788-2.252-4.031-4.098-6.615-5.425   c-1.091,1.929-2.357,3.784-3.998,5.425C69.914,52.142,71.179,53.996,72.271,55.926z" fill="#143d59" style=""></path><path d="M62.138,31.245c0.585,2.133,0.925,4.367,0.925,6.688c2.322,0,4.555,0.341,6.689,0.93c0.868-2.745,1.143-5.603,0.82-8.436   C67.74,30.104,64.879,30.375,62.138,31.245z" fill="#143d59" style=""></path><path d="M50.498,22.11c-2.253,1.794-4.099,4.033-5.424,6.616c1.927,1.096,3.782,2.361,5.424,4.002   c1.644-1.641,3.498-2.906,5.426-4.002C54.597,26.144,52.752,23.904,50.498,22.11z" fill="#143d59" style=""></path><path d="M37.931,37.934c0-2.321,0.34-4.556,0.927-6.688c-2.74-0.87-5.601-1.141-8.432-0.817c-0.323,2.833-0.05,5.69,0.817,8.436   C33.377,38.274,35.612,37.934,37.931,37.934z" fill="#143d59" style=""></path><path d="M22.108,50.501c1.794,2.252,4.034,4.098,6.618,5.425c1.091-1.93,2.356-3.784,3.999-5.425   c-1.643-1.641-2.908-3.496-4.001-5.425C26.143,46.403,23.902,48.249,22.108,50.501z" fill="#143d59" style=""></path><path d="M38.858,69.757c-0.587-2.133-0.927-4.367-0.927-6.688c-2.319,0-4.553-0.341-6.688-0.93   c-0.868,2.745-1.14,5.604-0.817,8.436C33.257,70.896,36.118,70.627,38.858,69.757z" fill="#143d59" style=""></path><path d="M50.498,78.891c2.255-1.793,4.1-4.032,5.426-6.616c-1.929-1.095-3.782-2.36-5.426-4c-1.642,1.64-3.497,2.905-5.424,4   C46.401,74.858,48.245,77.098,50.498,78.891z" fill="#143d59" style=""></path><path d="M63.063,63.068c0,2.321-0.34,4.556-0.925,6.688c2.741,0.87,5.602,1.139,8.435,0.817c0.323-2.832,0.048-5.695-0.82-8.436   C67.618,62.728,65.385,63.068,63.063,63.068z" fill="#143d59" style=""></path><path d="M87.425,44.026c-0.571,2.304-1.457,4.476-2.614,6.475c1.157,1.999,2.043,4.177,2.614,6.475   C88.844,52.771,88.844,48.231,87.425,44.026z" fill="#143d59" style=""></path><path d="M81.233,29.05c-1.981-4.041-5.244-7.301-9.286-9.282c1.249,2.063,2.147,4.268,2.745,6.541   C76.966,26.907,79.165,27.802,81.233,29.05z" fill="#143d59" style=""></path><path d="M56.971,13.576c-4.204-1.418-8.742-1.418-12.947,0c2.3,0.571,4.473,1.453,6.473,2.614   C52.5,15.029,54.671,14.147,56.971,13.576z" fill="#143d59" style=""></path><path d="M29.047,19.768c-4.042,1.981-7.301,5.241-9.284,9.282c2.066-1.248,4.268-2.143,6.541-2.741   C26.904,24.035,27.798,21.831,29.047,19.768z" fill="#143d59" style=""></path><path d="M13.571,56.973c0.574-2.3,1.458-4.473,2.616-6.472c-1.159-1.999-2.04-4.171-2.616-6.472   C12.158,48.231,12.158,52.771,13.571,56.973z" fill="#143d59" style=""></path><path d="M19.765,71.952c1.981,4.041,5.24,7.297,9.279,9.282c-1.248-2.068-2.141-4.269-2.741-6.542   C24.031,74.095,21.829,73.2,19.765,71.952z" fill="#143d59" style=""></path><path d="M44.024,87.426c4.205,1.418,8.746,1.418,12.947,0c-2.3-0.572-4.472-1.453-6.474-2.614   C48.498,85.973,46.324,86.854,44.024,87.426z" fill="#143d59" style=""></path><path d="M71.952,81.234c4.037-1.985,7.3-5.241,9.281-9.282c-2.068,1.248-4.267,2.143-6.541,2.74   C74.095,76.966,73.2,79.166,71.952,81.234z" fill="#143d59" style=""></path></g><desc>Created with Snap</desc><defs></defs></g><g><g transform="matrix(1.024,0,0,-1.024,0,0)"><path d="M387 -16Q287 -16 210 26Q133 68 90 147Q47 226 47 335Q47 406 68 473Q90 541 133 596Q177 651 242 683Q308 716 395 716Q431 716 468 709Q505 703 539 690Q574 678 602 661L598 709L653 709L653 480L617 480Q613 543 583 586Q554 630 507 653Q460 676 402 676Q349 676 302 652Q256 629 220 586Q185 544 165 486Q145 428 145 358Q145 264 179 190Q213 116 273 74Q334 32 413 32Q440 32 469 37Q499 42 528 53Q558 65 584 82L584 204Q584 228 584 252Q584 277 584 301Q567 300 549 299Q531 298 514 297L514 341L740 341L740 308Q712 308 697 293Q682 279 676 258Q670 238 669 218Q668 199 668 189L668 36L641 36Q625 36 597 30Q569 24 533 10Q502 -2 461 -9Q420 -16 387 -16ZM1041 0L816 0L816 33Q854 35 868 50Q882 66 883 93Q885 121 885 156L885 588Q885 608 886 626Q887 645 888 660Q870 659 852 658Q834 657 816 656L816 700Q872 701 929 702Q987 703 1045 701Q1142 700 1201 678Q1261 657 1289 617Q1317 578 1317 522Q1318 483 1302 442Q1287 402 1246 370Q1206 338 1130 322Q1150 308 1165 286Q1180 264 1199 235L1267 128Q1284 101 1300 79Q1316 58 1337 45Q1358 33 1389 33L1389 0L1263 0Q1234 26 1214 52Q1195 78 1174 111L1107 218Q1094 239 1077 266Q1061 294 1040 313Q1024 312 1006 312Q989 312 972 313L972 119Q972 92 971 72Q971 53 969 40Q981 41 993 41Q1005 42 1017 43Q1029 44 1041 44L1041 0ZM1034 350Q1089 352 1130 368Q1172 384 1196 419Q1220 454 1220 511Q1220 549 1209 577Q1199 606 1177 625Q1155 644 1121 653Q1087 663 1041 663Q1004 663 989 648Q975 633 973 606Q972 580 972 544L972 352Q988 351 1002 350Q1017 349 1034 350ZM1444 0L1444 33Q1482 35 1496 50Q1510 66 1511 93Q1513 121 1513 156L1513 588Q1513 608 1514 626Q1515 645 1516 660Q1498 659 1480 658Q1462 657 1444 656L1444 700Q1497 701 1553 701Q1609 702 1667 702Q1764 702 1830 680Q1896 658 1931 615Q1966 572 1969 508Q1971 469 1957 426Q1944 384 1907 346Q1871 309 1805 286Q1739 263 1636 263Q1632 263 1621 263Q1610 263 1600 264L1600 119Q1600 92 1599 72Q1599 53 1597 40Q1613 41 1628 42Q1643 43 1658 43Q1674 44 1689 45L1689 0L1444 0ZM1600 544L1600 305Q1619 303 1632 302Q1646 302 1665 302Q1722 302 1769 324Q1816 347 1844 389Q1872 431 1872 489Q1872 536 1857 569Q1842 603 1814 623Q1787 644 1749 653Q1711 663 1665 663Q1630 663 1616 648Q1603 633 1601 606Q1600 580 1600 544ZM2250 -16Q2178 -16 2131 5Q2084 27 2061 59Q2039 91 2039 120Q2039 143 2051 158Q2063 174 2085 175Q2103 176 2113 168Q2124 161 2128 150Q2132 139 2132 130Q2132 120 2129 110Q2126 100 2121 90Q2131 56 2166 41Q2202 26 2243 26Q2314 26 2356 65Q2399 104 2399 178Q2399 222 2385 261Q2371 301 2333 326Q2295 351 2222 349Q2214 349 2205 348Q2196 348 2185 347L2185 392Q2196 392 2206 392Q2216 392 2226 392Q2279 392 2309 416Q2339 440 2352 473Q2365 506 2365 534Q2365 575 2354 607Q2344 640 2318 658Q2292 677 2246 677Q2201 677 2169 653Q2137 630 2129 605Q2138 595 2141 585Q2145 575 2145 564Q2145 556 2140 545Q2136 535 2126 528Q2116 521 2099 521Q2078 521 2067 536Q2056 551 2056 572Q2056 600 2078 633Q2100 667 2145 691Q2191 716 2260 716Q2314 716 2360 699Q2406 682 2434 643Q2462 605 2462 542Q2462 511 2446 479Q2431 448 2395 421Q2360 394 2298 375Q2393 365 2447 314Q2502 263 2502 185Q2502 117 2466 72Q2431 28 2373 6Q2316 -16 2250 -16ZM2828 -16Q2793 -16 2755 -8Q2717 1 2684 20Q2652 39 2631 71Q2611 103 2611 150Q2611 195 2633 232Q2655 270 2689 300Q2724 331 2763 355Q2687 401 2656 446Q2625 492 2625 535Q2625 582 2643 616Q2662 651 2693 673Q2724 695 2761 705Q2799 716 2837 716Q2888 716 2932 697Q2977 679 3004 643Q3032 607 3032 555Q3032 516 3013 483Q2995 450 2964 424Q2934 399 2897 380Q2942 354 2980 320Q3018 287 3041 248Q3064 209 3064 166Q3064 103 3031 62Q2998 22 2944 3Q2890 -16 2828 -16ZM2830 24Q2895 23 2930 56Q2966 89 2966 147Q2966 199 2929 248Q2893 298 2801 337Q2746 297 2721 251Q2697 205 2695 168Q2691 104 2728 64Q2766 25 2830 24ZM2862 400Q2906 430 2929 468Q2953 506 2954 543Q2956 608 2924 642Q2892 676 2839 677Q2800 678 2773 660Q2746 643 2732 615Q2718 588 2718 557Q2718 502 2759 461Q2801 421 2862 400Z" fill="#143d59" style=""></path></g></g></g></svg>